<?xml version="1.0" encoding="utf-8"?>
<!-- Generator: Adobe Illustrator 16.0.3, SVG Export Plug-In . SVG Version: 6.00 Build 0)  -->
<!DOCTYPE svg PUBLIC "-//W3C//DTD SVG 1.1//EN" "http://www.w3.org/Graphics/SVG/1.1/DTD/svg11.dtd">
<svg version="1.1" id="Capa_1" xmlns="http://www.w3.org/2000/svg" xmlns:xlink="http://www.w3.org/1999/xlink" x="0px" y="0px"
	 width="2834.65px" height="2834.65px" viewBox="0 0 2834.65 2834.65" enable-background="new 0 0 2834.65 2834.65"
	 xml:space="preserve">
<g>
	<g>
		<path fill="#CC1567" d="M550.844,2344.269c-19.976,1.769,24.102-0.583,9.423-0.175c-4.208,0.117-8.419,0.021-12.625-0.1
			c-4.287-0.122-8.565-0.447-12.839-0.795c28.44,2.314,6.921,0.474,0.344-0.545c-20.518-3.176-40.614-8.816-60.203-15.61
			c4.607,1.614,9.214,3.229,13.822,4.844c-79.557-28.378-153.463-78.554-208.218-142.98c2.173,2.589,4.346,5.177,6.519,7.766
			c-18.783-22.506-35.22-46.961-46.3-74.204c-11.584-28.483-12.673-60.533-7.546-90.538c-0.587,3.328-1.175,6.655-1.762,9.983
			c9.485-50.323,36.466-94.869,69.438-133.327c-3.183,3.702-6.365,7.403-9.548,11.105c22.151-25.354,46.957-48.026,73.669-68.489
			c3.277-2.51,6.611-4.946,9.944-7.382c-19.634,14.349-7.12,5.081-2.767,2.094c6.84-4.693,13.833-9.158,20.871-13.546
			c7.035-4.386,14.211-8.539,21.429-12.612c3.601-2.031,7.245-3.983,10.889-5.935c-15.992,8.271-19.684,10.215-11.075,5.829
			c2.448-1.231,4.904-2.443,7.37-3.638c3.678-1.799,7.397-3.515,11.115-5.229c16.531-7.626-28.804,10.571-12.478,5.155
			c1.152-0.376,2.304-0.751,3.456-1.127c11.285-3.604,4.606-1.551-20.038,6.156c3.519-1.09,7.054-2.127,10.588-3.165
			c15.634-4.591,31.438-8.59,47.305-12.282c-7.888,1.791-15.775,3.582-23.663,5.373c2.504-0.557,5.011-1.104,7.519-1.641
			c3.783-0.817,7.575-1.592,11.367-2.367c7.66-1.564,15.345-3.004,23.036-4.404c7.79-1.419,15.601-2.719,23.417-3.982
			c3.943-0.638,7.893-1.237,11.841-1.838c2.646-0.398,5.293-0.789,7.941-1.171c-21.951,3.081-27.488,3.874-16.611,2.378
			c34.031-4.66,68.242-7.959,102.491-10.52c16.811-1.257,33.641-2.256,50.477-3.127c4.235-0.219,8.472-0.416,12.708-0.613
			c17.351-0.808-25.244,1.04-7.871,0.345c9.937-0.397,19.877-0.718,29.819-1.012c70.786-2.089,141.627-1.616,212.427-0.536
			c235.503,3.591,471.319,7.988,706.694-3.262c250.093-11.954,500.951-50.527,733.204-147.321
			c103.729-43.229,203.39-102.406,286.17-178.825c80.139-73.98,143.311-165.087,185.646-265.459
			c3.112-7.379,6.07-14.822,8.968-22.288c14.505-37.372-79-21.768-91.96-19.373c-30.271,5.594-60.387,14.479-88.415,27.297
			c-13.49,6.169-41.714,18.228-47.922,34.224c-30.741,79.209-73.385,153.212-128.582,217.926c3.183-3.702,6.365-7.404,9.548-11.105
			c-32.709,38.015-69.271,72.395-108.992,102.994c-4.725,3.639-9.513,7.194-14.32,10.723c-4.822,3.538-15.43,11.021,6.63-4.65
			c-2.432,1.728-4.883,3.427-7.333,5.127c-10.635,7.373-21.489,14.424-32.464,21.277c-10.162,6.347-20.494,12.417-30.915,18.326
			c-5.228,2.965-10.5,5.848-15.785,8.704c-2.648,1.431-5.311,2.834-7.973,4.238c17.624-9.155,22.303-11.603,14.037-7.341
			c-1.79,0.918-3.582,1.829-5.378,2.735c-22.578,11.438-45.671,21.845-69.058,31.513c-8.448,3.491-23.328,9.314,15.438-6.189
			c-2.848,1.139-5.706,2.254-8.563,3.369c-5.73,2.235-11.489,4.398-17.255,6.539c-12.567,4.664-25.234,9.055-37.954,13.285
			c-5.905,1.964-11.832,3.86-17.766,5.734c-16.309,5.153,34.937-10.757,18.566-5.761c-2.991,0.913-5.989,1.805-8.988,2.696
			c-13.056,3.883-26.186,7.518-39.352,11.008c-12.246,3.246-24.546,6.289-36.871,9.219c-3.095,0.735-6.194,1.452-9.294,2.169
			c-16.803,3.885,35.542-8.007,18.696-4.255c-7.282,1.621-14.581,3.171-21.885,4.693c-26.305,5.48-52.754,10.259-79.275,14.563
			c-6.413,1.041-12.833,2.034-19.255,3.013c-3.218,0.49-6.438,0.966-9.656,1.44c-1.075,0.157-2.149,0.313-3.224,0.471
			c-10.601,1.527-4.298,0.637,18.909-2.672c-14.029,1.981-28.082,3.794-42.146,5.509c-54.536,6.651-109.307,11.299-164.135,14.721
			c-13.205,0.824-26.416,1.554-39.63,2.23c-6.604,0.339-13.211,0.652-19.817,0.956c-7.61,0.352-22.84,0.993,11.648-0.483
			c-4.4,0.188-8.803,0.364-13.204,0.539c-27.434,1.088-54.878,1.883-82.325,2.501c-54.097,1.22-108.209,1.61-162.317,1.705
			c-115.731,0.204-231.412-0.483-347.124-2.662c-147.475-2.776-295.512-4.28-442.528,9.65
			c-83.403,7.902-166.194,21.597-247.391,42.284c-47.911,12.208-95.447,27.13-139.771,49.211
			c-42.271,21.059-81.328,45-119.431,72.846c-54.713,39.983-105.021,92.14-136.516,152.546
			c-26.339,50.517-37.876,114.426-15.884,168.498c14.512,35.681,39.51,66.766,65.453,94.755
			c28.972,31.257,62.836,57.959,98.773,80.736c82.434,52.247,177.401,79.183,275.037,70.538
			c30.625-2.711,61.298-10.309,90.218-20.566c22.468-7.97,46.93-17.953,65.161-33.903c8.146-7.126,18.397-20.577,4.792-28.854
			C593.366,2340.155,568.242,2342.728,550.844,2344.269L550.844,2344.269z"/>
	</g>
</g>
<g>
	<g>
		<path fill="#F5F8CB" d="M720.829,903.947c-42.974,7.917-85.017,21.101-125.231,38.166
			c-41.692,17.692-79.135,41.823-113.267,71.353c-15.028,13.001-26.783,28.253-38.597,44.178
			c-7.986,10.766-14.408,22.645-19.065,35.208c-6.424,17.328-11.936,33.72-12.847,52.259c-0.908,18.458,0.614,37.504,5.142,55.455
			c5.093,20.187,14.724,38.664,24.594,56.857c9.444,17.408,21.253,33.47,33.967,48.61c27.462,32.702,60.903,61.043,96.595,84.381
			c65.792,43.019,143.078,69.116,219.531,85.46c78.657,16.813,158.626,25.227,238.761,30.841
			c87.5,6.13,174.796,14.269,262.565,15.544c97.716,1.42,195.525-2.602,292.709-12.925c96.783-10.28,192.924-26.842,288.122-46.95
			c81.249-17.162,161.753-37.718,241.674-60.227c21.152-5.958,41.904-15.763,57.364-31.797
			c10.955-11.361,19.936-27.451,15.549-43.823c-4.387-16.372-20.209-25.815-35.377-30.177c-21.008-6.042-44.717-4.73-65.577,1.145
			c-105.277,29.651-211.583,55.762-319.178,75.556c7.87-1.441,15.74-2.882,23.611-4.323
			c-130.834,23.936-263.306,38.068-396.339,39.947c7.393-0.097,14.787-0.193,22.18-0.29c-46.788,0.603-93.576-0.248-140.313-2.5
			c-45.836-2.208-91.425-7.08-137.196-10.002c-73.084-4.667-146.241-9.794-218.574-21.665c-3.721-0.611-7.436-1.25-11.15-1.898
			c6.596,1.156,13.191,2.312,19.787,3.468c-55.81-9.851-111.034-23.904-163.389-45.856c5.477,2.316,10.954,4.632,16.431,6.948
			c-40.823-17.308-79.458-39.461-113.629-67.832c4.038,3.384,8.075,6.768,12.113,10.151c-32.665-27.435-61.985-60.466-82.053-98.291
			c2.278,4.36,4.555,8.719,6.833,13.079c-11.192-21.582-18.943-44.789-20.238-69.187c0.208,4.914,0.415,9.828,0.622,14.742
			c-0.675-16.727,1.779-33.186,7.406-48.956c-1.805,4.949-3.61,9.898-5.415,14.848c4.871-13.139,11.708-25.29,20.048-36.533
			c-3.585,4.744-7.17,9.488-10.756,14.232c9.021-11.905,19.489-22.504,30.93-32.086c-5.134,4.298-10.268,8.597-15.402,12.896
			c12.541-10.336,26.04-19.34,40.176-27.342c-6.451,3.613-12.902,7.226-19.353,10.839c18.47-10.306,37.82-18.821,57.71-25.985
			c-7.537,2.687-15.073,5.374-22.609,8.061c25.782-9.146,52.28-15.973,79.175-20.927c30.434-5.607,83.143-37.441,72.913-75.62
			c-4.387-16.372-20.209-25.815-35.376-30.177C764.025,896.365,743.142,899.836,720.829,903.947L720.829,903.947z"/>
	</g>
</g>
<g>
	<g>
		<path fill="#F5F8CB" d="M1183.368,500.074c-52.725-5.054-105.618,0.742-157.147,12.038c-27.129,5.947-53.58,15.227-79.257,25.687
			c-23.96,9.761-47.244,22.796-68.112,38.012c-24.55,17.9-43.614,38.646-59.875,64.073c-4.399,6.879-7.86,14.331-10.373,22.095
			c-4.304,13.298-8.618,25.554-9.285,39.504c-1.029,21.512,1.453,45.718,10.945,65.458c5.714,11.882,11.306,23.206,19.58,33.438
			c8.634,10.677,19.357,19.807,29.654,28.737c14.544,12.614,31.181,22.723,48.214,31.585c24.104,12.542,49.136,23.522,74.649,32.872
			c40.657,14.898,82.649,25.984,124.773,35.852c17.39,4.074,34.84,7.885,52.284,11.722c26.543,5.837,53.398,9.276,80.386,12.297
			c47.603,5.329,95.437,8.579,143.295,10.444c110.969,4.326,222.795,2.696,333.229-9.744
			c91.779-10.338,183.515-27.379,269.291-62.513c30.213-12.375,67.945-52.686,42.029-86.014
			c-11.52-14.814-31.111-21.325-49.03-23.179c-24.095-2.494-46.424,3.184-68.519,12.234c-5.634,2.308-11.313,4.498-17.031,6.587
			c7.522-2.739,15.045-5.479,22.567-8.218c-40.786,14.793-83.277,24.566-125.945,32.105c7.884-1.389,15.769-2.778,23.653-4.167
			c-101.188,17.747-204.535,23.261-307.143,23.048c-3.147-0.006-6.295-0.022-9.443-0.042c7.433,0.05,14.865,0.101,22.299,0.151
			c-92.276-0.629-185.076-5.725-276.341-19.867c6.656,1.384,13.313,2.768,19.97,4.151c-75.69-16.666-152.84-33.275-223.384-66.365
			c5.556,2.611,11.112,5.222,16.668,7.833c-23.145-10.939-45.763-23.826-64.858-41.043c4.131,3.732,8.262,7.464,12.393,11.196
			c-10.448-9.546-19.672-20.421-26.104-33.093c2.381,4.747,4.763,9.494,7.144,14.241c-6.236-12.62-9.506-26.914-10.357-40.922
			c0.311,5.302,0.622,10.603,0.933,15.905c-0.562-11.223,0.738-22.343,4.083-33.078c-1.711,5.297-3.423,10.595-5.135,15.892
			c3.035-9.376,7.504-18.118,13.115-26.21c-3.506,5.039-7.012,10.078-10.519,15.117c5.705-8.069,12.397-15.313,19.761-21.891
			c-5.073,4.527-10.146,9.053-15.219,13.58c8.735-7.691,18.262-14.364,28.276-20.279c-6.412,3.76-12.823,7.52-19.235,11.28
			c13.802-8.057,28.384-14.63,43.378-20.132c-7.522,2.739-15.045,5.479-22.568,8.218c20.229-7.336,41.104-12.712,62.282-16.48
			c-7.884,1.389-15.769,2.778-23.653,4.167c22.574-3.947,45.466-6.097,68.391-5.997c-7.433-0.05-14.866-0.101-22.298-0.151
			c8.707,0.067,17.402,0.464,26.07,1.295c23.359,2.239,47.312-2.268,68.519-12.234c18.079-8.496,35.722-21.767,44.972-39.977
			c7.579-14.92,7.627-32.443-2.943-46.037C1220.946,508.524,1201.236,501.786,1183.368,500.074L1183.368,500.074z"/>
	</g>
</g>
<g>
	<g>
		<path fill="#F5CC99" d="M1733.756,110.867c-46.296,13.09-87.675,39.589-122.932,71.895
			c-36.328,33.288-66.843,73.588-89.634,117.229c-30.052,57.544-48.175,123.444-38.578,188.575c0.659,4.476,6.603,6.81,10.23,7.626
			c6.385,1.436,13.259,0.741,19.515-0.935c8.846-2.37,24.116-9.124,22.415-20.667c-0.787-5.34-1.387-10.697-1.81-16.078
			c-0.212-2.702-0.352-5.409-0.468-8.117c-0.059-1.358-0.093-2.716-0.127-4.075c-0.03-1.748-0.035-1.814-0.014-0.199
			c-0.006-0.91-0.005-1.819,0-2.729c0.035-11.494,0.979-22.975,2.528-34.358c3.198-23.491,9.499-46.508,17.771-68.697
			c2.029-5.443,4.221-10.825,6.501-16.167c0.184-0.428,2.144-4.864,0.588-1.368c0.594-1.334,1.202-2.661,1.811-3.988
			c1.423-3.102,2.902-6.176,4.405-9.24c5.382-10.978,11.324-21.677,17.66-32.131c6.328-10.439,13.16-20.568,20.36-30.423
			c3.434-4.698,6.986-9.309,10.609-13.861c1.803-2.265,3.64-4.501,5.488-6.728c0.922-1.11,1.854-2.21,2.787-3.31
			c1.42-1.658,1.246-1.461-0.521,0.587c0.629-0.723,1.259-1.443,1.893-2.162c9.328-10.621,19.258-20.711,29.68-30.261
			c5.067-4.643,10.289-9.114,15.616-13.455c2.792-2.275,5.633-4.488,8.497-6.671c-5.773,4.4-0.579,0.473,0.656-0.429
			c1.428-1.042,2.87-2.062,4.315-3.079c5.324-3.748,10.792-7.29,16.355-10.669c2.901-1.763,5.847-3.45,8.813-5.1
			c1.465-0.814,2.943-1.604,4.424-2.389c-7.72,4.094-2.045,1.077-0.316,0.216c5.453-2.715,11.03-5.176,16.687-7.434
			c2.513-1.002,13.537-4.806,3.224-1.317c2.94-0.995,5.913-1.889,8.899-2.734c7.745-2.19,25.424-9.438,22.415-20.667
			C1760.53,106.473,1741.497,108.678,1733.756,110.867L1733.756,110.867z"/>
	</g>
</g>
<g>
	<g>
		<path fill="#CC1567" d="M1581.323,259.552c-29.574-2.244-58.544,0.408-87.247,8.135c-14.758,3.973-29.2,9.515-43.21,15.563
			c-13.82,5.965-26.411,13.792-39.151,21.77c-40.247,25.204-77.63,67.627-81.893,116.782c-1.412,16.282,1.004,33.808,7.609,48.819
			c4.486,10.194,9.388,20.011,15.944,29.009c7.502,10.299,16.94,19.305,26.196,27.958c-2.84-2.807-5.679-5.615-8.519-8.422
			c7.525,7.458,14.315,14.301,23.342,19.746c9.676,5.836,19.918,11.097,30.485,15.168c19.868,7.654,41.296,12.315,62.382,15.092
			c47.07,6.197,95.877,3.333,141.987-7.84c21.457-5.199,43.134-12.804,62.401-23.661c20.3-11.437,41.06-25.807,54.227-45.497
			c4.56-6.818,9.156-13.283,11.525-21.099c2.728-8.997,5.122-17.523,5.253-26.875c0.211-15.11-2.282-30.179-7.255-44.407
			c-8.732-24.982-22.521-48.558-37.741-70.125c-9.126-12.932-21.268-24.632-33.402-34.643
			c-10.831-8.936-23.789-15.985-36.745-21.197c-26.203-10.541-56.169-12.154-83.961-9.082c-24.752,2.736-49.324,8.039-73.727,12.992
			c-23.974,4.866-46.941,11.671-69.597,21.047c-12.583,5.208-24.625,12.448-35.516,20.53
			c-13.537,10.045-23.445,22.412-31.531,37.014c-7.766,14.022-8.189,28.946-6.754,44.296c1.069,11.434,7.1,22.581,12.784,32.228
			c4.92,8.352,11.408,15.753,18.243,22.577c10.148,10.131,20.375,19.712,31.999,28.123c11.658,8.436,24.199,15.177,36.921,21.865
			c7.963,4.186,16.284,7.803,24.932,10.315c12.989,3.774,25.56,6.155,38.964,7.224c13.186,1.051,26.814,1.75,40.038,0.349
			c18.15-1.922,31.564-5.823,48.317-12.335c8.976-3.489,17.893-8.829,24.831-15.503c9.479-9.118,18.271-17.59,23.104-30.281
			c2.756-7.233,5.183-15.533,4.915-23.462c-0.28-8.325-0.809-16.672-3.457-24.598c-2.759-8.258-6.791-16.225-11.223-23.703
			c-7.004-11.816-17.262-21.917-27.524-30.834c-10.598-9.209-23.702-16.579-36.864-21.259
			c-45.778-16.277-99.071-3.252-130.426,34.42c-9.899,11.894-14.941,31.489-4.005,44.671c13.58,16.37,30.697,29.407,50.983,36.326
			c24.962,8.514,51.097,8.918,76.624,2.721c24.057-5.84,47.699-20,63.154-39.474c12.584-15.856,20.688-36.761,19.427-57.17
			c-0.303-3.89-0.605-7.779-0.907-11.669c-2.313-7.899-6.836-14.226-13.567-18.981c-11.332-8.209-26.085-10.837-39.784-9.933
			c-15.568,1.028-31.177,6.563-43.529,16.181c-3.325,3.227-6.651,6.453-9.978,9.68c-5.513,6.521-8.833,14.002-9.961,22.442
			c0.407,6.598-0.081,13.101-1.824,19.489c1.056-3.851,2.111-7.702,3.167-11.553c-1.172,3.948-2.768,7.67-4.87,11.213
			c2.266-3.63,4.53-7.26,6.795-10.89c-1.896,3.038-4.083,5.801-6.606,8.341c3.326-3.227,6.651-6.454,9.978-9.68
			c-2.306,2.22-4.782,4.175-7.47,5.913c4.238-2.642,8.477-5.283,12.715-7.924c-2.737,1.69-5.585,3.099-8.581,4.269
			c5.002-1.874,10.004-3.748,15.007-5.622c-3.074,1.131-6.2,1.978-9.421,2.571c5.27-0.878,10.538-1.756,15.808-2.635
			c-3.991,0.661-7.984,0.907-12.026,0.771c4.991,0.168,9.982,0.337,14.974,0.505c-4.189-0.214-8.296-0.833-12.368-1.839
			c4.494,1.131,8.987,2.263,13.481,3.395c-4.962-1.319-9.688-3.18-14.231-5.568c3.776,2.011,7.553,4.022,11.329,6.033
			c-5.884-3.222-11.18-7.215-15.964-11.913c2.84,2.807,5.679,5.614,8.519,8.422c-1.769-1.797-3.447-3.659-5.057-5.599
			c-1.335,14.891-2.67,29.781-4.005,44.671c1.209-1.453,2.478-2.841,3.824-4.167c-3.325,3.227-6.651,6.454-9.978,9.68
			c2.208-2.111,4.579-3.994,7.164-5.625c-4.238,2.641-8.478,5.283-12.716,7.924c2.087-1.271,4.254-2.349,6.531-3.236
			c-5.003,1.874-10.005,3.748-15.007,5.622c2.401-0.892,4.854-1.546,7.378-1.978c-5.269,0.878-10.538,1.757-15.807,2.635
			c2.714-0.422,5.435-0.577,8.18-0.495c-4.991-0.168-9.982-0.337-14.974-0.505c3.406,0.146,6.758,0.652,10.07,1.452
			c-4.494-1.131-8.987-2.263-13.481-3.395c5.301,1.341,10.352,3.397,15.177,5.957c-3.776-2.011-7.553-4.022-11.329-6.033
			c7.575,4.1,14.438,9.348,20.568,15.387c-2.84-2.807-5.679-5.614-8.519-8.422c6.998,6.99,13.013,14.973,17.35,23.883
			c-1.684-3.52-3.366-7.04-5.049-10.56c2.78,5.839,4.813,12.03,5.39,18.496c-0.303-3.89-0.605-7.779-0.908-11.669
			c0.284,3.752,0.051,7.481-0.899,11.129c1.056-3.851,2.111-7.702,3.167-11.553c-0.719,2.571-1.767,4.985-3.175,7.254
			c2.266-3.63,4.53-7.26,6.795-10.89c-1.133,1.75-2.436,3.342-3.909,4.814c3.325-3.227,6.651-6.454,9.978-9.68
			c-1.634,1.571-3.407,2.941-5.314,4.164c4.239-2.642,8.478-5.283,12.716-7.924c-2.364,1.461-4.85,2.655-7.438,3.662
			c5.002-1.874,10.004-3.748,15.006-5.622c-3.802,1.418-7.718,2.401-11.711,3.108c5.27-0.878,10.538-1.756,15.808-2.635
			c-7.694,1.28-15.483,1.532-23.268,1.275c4.991,0.168,9.982,0.337,14.974,0.505c-9.894-0.396-20.107-1.188-29.756-3.512
			c4.494,1.132,8.987,2.263,13.481,3.395c-10.028-2.545-19.539-6.785-28.673-11.586c3.776,2.011,7.553,4.022,11.33,6.033
			c-17.504-9.343-33.854-21.055-48.012-34.975c2.84,2.807,5.679,5.615,8.519,8.422c-8.328-8.313-15.979-17.472-21.224-28.072
			c1.683,3.52,3.365,7.04,5.048,10.56c-2.441-5.138-4.223-10.489-4.755-16.174c0.303,3.89,0.605,7.779,0.908,11.669
			c-0.303-4.494,0.17-8.936,1.335-13.283c-1.056,3.851-2.111,7.702-3.167,11.553c1.069-3.622,2.597-6.994,4.574-10.21
			c-2.266,3.63-4.53,7.26-6.795,10.89c2.086-3.229,4.52-6.136,7.252-8.836c-3.325,3.227-6.651,6.454-9.978,9.68
			c3.708-3.539,7.788-6.577,12.124-9.303c-4.238,2.642-8.478,5.283-12.716,7.924c7.007-4.292,14.467-7.696,22.135-10.623
			c-5.003,1.874-10.005,3.748-15.007,5.622c29.147-10.912,60.906-16.246,91.51-21.418c-5.27,0.878-10.538,1.757-15.808,2.635
			c12.808-2.121,25.729-3.688,38.733-3.365c-4.991-0.168-9.982-0.336-14.974-0.505c7.271,0.25,14.453,1.122,21.528,2.835
			c-4.494-1.131-8.988-2.263-13.481-3.395c6.763,1.729,13.23,4.198,19.434,7.4c-3.776-2.011-7.554-4.022-11.33-6.033
			c9.772,5.21,18.421,12.026,26.307,19.771c-2.84-2.807-5.68-5.614-8.519-8.421c17.315,17.353,30.767,38.893,41.324,60.931
			c-1.683-3.52-3.365-7.04-5.048-10.56c6.497,13.818,11.742,28.417,12.973,43.736c-0.303-3.89-0.605-7.779-0.907-11.669
			c0.409,6.563,0.017,13.027-1.565,19.422c1.056-3.851,2.11-7.702,3.166-11.553c-0.984,3.582-2.233,6.889-4.179,10.053
			c2.265-3.63,4.53-7.26,6.795-10.89c-3.164,5-6.93,9.52-11.154,13.656c3.325-3.227,6.651-6.454,9.978-9.68
			c-5.235,5.021-11.024,9.356-17.173,13.194c4.238-2.641,8.477-5.283,12.715-7.924c-8.488,5.208-17.511,9.412-26.819,12.93
			c5.002-1.874,10.004-3.748,15.007-5.622c-14.4,5.351-29.338,9.035-44.475,11.579c5.269-0.878,10.537-1.757,15.807-2.635
			c-20.534,3.367-41.364,4.633-62.158,3.999c4.991,0.168,9.982,0.336,14.974,0.505c-19.365-0.66-38.702-2.94-57.526-7.608
			c4.494,1.131,8.987,2.263,13.481,3.395c-12.21-3.091-24.196-7.176-35.357-13.063c3.776,2.011,7.553,4.022,11.329,6.033
			c-6.776-3.643-13.178-7.938-18.721-13.299c2.84,2.807,5.68,5.614,8.519,8.422c-4.128-4.091-8.28-8.138-12.446-12.184
			c2.84,2.807,5.68,5.614,8.52,8.422c-9.683-9.589-18.156-20.294-24.161-32.575c1.683,3.52,3.365,7.04,5.049,10.56
			c-4.165-8.812-6.871-18.106-7.712-27.83c0.303,3.89,0.605,7.779,0.908,11.669c-0.625-8.704,0.271-17.313,2.538-25.734
			c-1.056,3.851-2.111,7.702-3.166,11.553c2.419-8.544,6.132-16.564,10.794-24.111c-2.266,3.63-4.53,7.26-6.795,10.89
			c5.438-8.606,11.963-16.39,19.224-23.512c-3.326,3.227-6.652,6.454-9.979,9.681c8.955-8.649,18.858-16.183,29.403-22.786
			c-4.238,2.641-8.477,5.283-12.716,7.924c11.683-7.214,24.026-13.226,36.876-18.06c-5.003,1.874-10.005,3.748-15.007,5.622
			c11.981-4.427,24.3-7.797,36.9-9.917c-5.27,0.878-10.538,1.757-15.808,2.635c10.48-1.691,21.056-2.499,31.672-2.146
			c-4.991-0.168-9.982-0.337-14.974-0.505c1.889,0.079,3.773,0.188,5.658,0.332c16.087,1.221,31.115-0.524,45.787-7.751
			c12.316-6.066,23.779-15.719,29.488-28.494c4.945-11.068,4.438-23.785-2.79-33.782
			C1607.336,267.284,1593.639,260.486,1581.323,259.552L1581.323,259.552z"/>
	</g>
</g>
</svg>
